<?xml version="1.0" encoding="UTF-8" standalone="no"?>
<!-- Created with Inkscape (http://www.inkscape.org/) -->

<svg
   width="291.9447mm"
   height="291.9447mm"
   viewBox="0 0 291.9447 291.9447"
   version="1.1"
   id="svg1"
   xml:space="preserve"
   xmlns="http://www.w3.org/2000/svg"
   xmlns:svg="http://www.w3.org/2000/svg"><defs
     id="defs1" /><g
     id="layer1"
     transform="translate(1051.2818,410.54726)"><path
       style="fill:none;stroke:#000000;stroke-width:7.9375;stroke-linecap:round;stroke-linejoin:round;stroke-dasharray:none;stroke-opacity:1"
       d="m -903.64283,-325.44596 c -30.65905,45.31705 -55.33676,68.37075 -79.81482,91.10029 -6.09394,6.88572 -14.02834,11.38967 -18.24655,20.70281 0.9592,13.13956 21.47095,30.64598 32.37008,30.70331 5.98937,-1.74441 12.0377,-9.26851 17.80793,-15.61482 30.21969,-27.24235 49.54542,-56.91633 92.68036,-82.48902"
       id="path10" /><path
       style="fill:none;stroke:#000000;stroke-width:7.9375;stroke-linecap:round;stroke-linejoin:miter;stroke-dasharray:none;stroke-opacity:1"
       d="m -903.4937,-325.74562 c 0,0 23.57143,11.78572 44.53759,43.79323"
       id="path11" /><path
       id="path12"
       style="opacity:1;fill:none;stroke:#000000;stroke-width:7.9375;stroke-linecap:round;stroke-linejoin:round;stroke-dasharray:none;paint-order:stroke fill markers"
       d="m -851.61941,-148.84935 c 2.03879,-21.37471 8.318,-40.66478 -6.36232,-55.35675 -14.6884,-14.70006 -33.99462,-7.93363 -48.92645,6.51911 l -48.33581,50.44118 c -14.92354,14.44512 -36.21442,23.73817 -50.91591,9.06711 -14.6711,-14.70148 -10.2906,-28.62357 4.1546,-43.54711 l 0.1661,-0.16672 11.93043,-12.10588" /><path
       id="path13"
       style="opacity:1;fill:none;stroke:#000000;stroke-width:7.9375;stroke-linecap:round;stroke-linejoin:round;stroke-dasharray:none;paint-order:stroke fill markers"
       d="m -886.57318,-381.88916 c 35.27147,22.87256 58.29747,51.11829 81.4021,79.32947 l -13.22043,12.19328 c -23.91399,-28.27506 -45.35946,-54.82653 -78.78219,-77.69202 z" /><path
       id="path14"
       style="opacity:1;fill:none;stroke:#000000;stroke-width:7.9375;stroke-linecap:round;stroke-linejoin:round;stroke-dasharray:none;paint-order:stroke fill markers"
       d="m -903.18952,-324.35044 c -0.96307,-4.02466 -1.2976,-7.43587 -1.2976,-11.75569 0,-11.30369 3.49201,-21.7918 9.45611,-30.44437 m 12.5321,-12.90082 c 8.8883,-6.51549 19.85484,-10.36303 31.72,-10.36303 29.66224,0 53.70823,24.04599 53.70823,53.70822 0,11.60386 -3.6799,22.3482 -9.9364,31.12972 m -12.86976,12.80339 c -8.73924,6.15841 -19.39828,9.77514 -30.90207,9.77514 -3.1617,0 -6.25957,-0.27319 -9.27134,-0.79728" /><rect
       style="opacity:1;fill:none;stroke:#000000;stroke-width:7.94005;stroke-linecap:round;stroke-linejoin:round;stroke-dasharray:none;paint-order:stroke fill markers"
       id="rect19"
       width="18.666056"
       height="30.255739"
       x="-864.02356"
       y="368.62289"
       ry="9.3495378"
       transform="matrix(0.75655263,0.65393281,-0.68065015,0.73260861,0,0)" /><rect
       style="opacity:1;fill:none;stroke:none;stroke-width:7.9375;stroke-linecap:round;stroke-linejoin:round;stroke-dasharray:none;paint-order:stroke fill markers"
       id="rect20"
       width="291.9447"
       height="291.9447"
       x="-1051.2817"
       y="-410.54724" /></g></svg>
